# xmcd
#
# Track frame offsets: 
#        150
#        19996
#        40840
#        57824
#        68993
#        86737
#        103744
#        120471
#        131183
#        156231
#        178034
#        192556
#        205398
#        226641
#        246775
#        263971
#
# Disc length: 3992 seconds
#
# Revision: 0
# Processed by: cddbd v1.5.2PL0 Copyright (c) Steve Scherf et al.
# Submitted via: ExactAudioCopy v0.99pb5
#
DISCID=e60f9610
DTITLE=Theresa Malenfant - My Best
DYEAR=2007
DGENRE=Blues
TTITLE0=Guilty
TTITLE1=C.C. Rider
TTITLE2=Your Good Thing
TTITLE3=Tell Mamma
TTITLE4=Threw It All Away
TTITLE5=You Win, I Lose
TTITLE6=Little Girl Blue
TTITLE7=Bye Bye Baby
TTITLE8=Misery'N
TTITLE9=Move Over
TTITLE10=First Night Alone Without You
TTITLE11=Ain't Nobody Home
TTITLE12=Shaky Ground
TTITLE13=Let Me Down Easy
TTITLE14=Sky Is Cryin'/Dust My Broom
TTITLE15=Turtle Blues
EXTD=
EXTT0=
EXTT1=
EXTT2=
EXTT3=
EXTT4=
EXTT5=
EXTT6=
EXTT7=
EXTT8=
EXTT9=
EXTT10=
EXTT11=
EXTT12=
EXTT13=
EXTT14=
EXTT15=
PLAYORDER=
